<svg xmlns="http://www.w3.org/2000/svg" viewBox="0 0 2399.9998 720" id="svg2" height="42" width="140" version="1.1">
    <g id="g4">
        <path id="path6" style="fill:#006ab1;fill-rule:evenodd" d="m 303.4746,160.4422 c 5.3768,0 31.4162,16.6362 78.2483,49.9952 29.2129,21.0762 58.4257,42.1544 87.6401,63.3191 3.6922,2.5265 5.5054,5.3122 5.5054,8.3613 l 0,51.2996 c 0,2.3517 -1.8132,4.7918 -5.5054,7.1434 -0.7773,0.5226 -29.0843,20.7285 -84.9854,60.7061 -47.998,34.2293 -74.1659,51.2997 -78.5711,51.2997 -10.0406,0 -25.0678,-0.4342 -45.0832,-1.3929 -20.0796,-0.9588 -35.1084,-1.3929 -45.0832,-1.3929 -4.6638,0 -6.9956,-2.0039 -6.9956,-6.0982 0,-3.2219 0.1943,-8.0115 0.5187,-14.1961 0.3886,-6.1846 0.5829,-10.8879 0.5829,-14.1098 0,-3.1355 -0.1943,-7.7524 -0.5829,-14.1098 -0.3244,-6.271 -0.5187,-10.9742 -0.5187,-14.0233 0,-3.9194 1.1659,-5.8349 3.5621,-5.8349 10.2991,0 25.7165,0.8703 46.3149,2.6994 20.6626,1.7426 36.1442,2.6129 46.5077,2.6129 8.6145,0 46.9621,-26.302 114.9755,-79.083 -17.6835,-13.9369 -38.0232,-29.0919 -60.8892,-45.3784 -33.1636,-23.6911 -52.6618,-35.4493 -58.4257,-35.4493 -9.9105,0 -24.6149,0.3498 -44.2416,1.2201 -19.6268,0.8703 -34.2653,1.3064 -44.0473,1.3064 -2.5262,0 -3.7564,-1.9154 -3.7564,-5.662 0,-3.2219 0.1943,-7.9252 0.5187,-14.2826 0.3886,-6.271 0.5829,-10.9742 0.5829,-14.0233 0,-3.0491 -0.1943,-7.6639 -0.5829,-13.9349 -0.3244,-6.1846 -0.5187,-10.8015 -0.5187,-13.8485 0,-3.7465 1.1659,-5.9233 3.5621,-6.3595 -0.8416,0.1749 1.5545,0.2613 7.2557,0.2613 9.3276,0 23.3189,-0.1728 42.0383,-0.5226 18.6551,-0.3477 32.6464,-0.5225 41.974,-0.5225 z"/>
        <path id="path8" style="fill:#006ab1;fill-rule:evenodd" d="m 248.028,561.4389 c -5.3768,0 -31.4163,-16.6363 -78.2484,-49.9952 -29.2128,-21.0762 -58.4257,-42.1545 -87.6401,-63.3191 -3.6921,-2.5265 -5.5053,-5.3123 -5.5053,-8.3613 l 0,-51.2997 c 0,-2.3516 1.8132,-4.7917 5.5053,-7.1433 0.7773,-0.5226 29.0843,-20.7285 84.9854,-60.7062 47.998,-34.2292 74.166,-51.2996 78.5712,-51.2996 10.0406,0 25.0678,0.4341 45.0832,1.3929 20.0796,0.9587 35.1083,1.3928 45.0831,1.3928 4.6638,0 6.9957,2.004 6.9957,6.0982 0,3.2219 -0.1943,8.0116 -0.5187,14.1962 -0.3887,6.1846 -0.583,10.8878 -0.583,14.1098 0,3.1355 0.1943,7.7523 0.583,14.1097 0.3244,6.271 0.5187,10.9743 0.5187,14.0234 0,3.9194 -1.1659,5.8348 -3.5621,5.8348 -10.2992,0 -25.7166,-0.8703 -46.3149,-2.6993 -20.6626,-1.7426 -36.1443,-2.6129 -46.5077,-2.6129 -8.6145,0 -46.9622,26.302 -114.9756,79.083 17.6835,13.9369 38.0233,29.0918 60.8892,45.3783 33.1636,23.6912 52.6618,35.4493 58.4258,35.4493 9.9105,0 24.6149,-0.3497 44.2416,-1.22 19.6267,-0.8703 34.2653,-1.3065 44.0473,-1.3065 2.5262,0 3.7564,1.9155 3.7564,5.662 0,3.222 -0.1943,7.9252 -0.5187,14.2826 -0.3887,6.271 -0.583,10.9743 -0.583,14.0234 0,3.0491 0.1943,7.6639 0.583,13.9349 0.3244,6.1846 0.5187,10.8014 0.5187,13.8484 0,3.7466 -1.1659,5.9233 -3.5621,6.3595 0.8416,-0.1749 -1.5546,-0.2613 -7.2558,-0.2613 -9.3275,0 -23.3189,0.1728 -42.0382,0.5226 -18.6551,0.3477 -32.6465,0.5226 -41.974,0.5226 z"/>
        <path id="path10" style="fill:#006ab1;fill-rule:evenodd" d="m 2008.6339,268.8126 0,89.2042 c 0,10.8365 3.7302,19.9859 11.2524,27.5103 7.4006,7.4027 16.7292,11.135 27.86,11.135 l 127.8644,0 c 4.8136,0 8.9639,1.6849 12.5149,5.1165 3.6086,3.4294 5.4748,7.6437 5.4748,12.7004 l -0.3605,23.7737 c 0,5.0568 -1.7445,9.3308 -5.2337,12.8242 -3.4316,3.4295 -7.5819,5.1762 -12.3955,5.1762 l -143.3289,0 c -5.0546,0 -10.41,-1.7467 -16.066,-5.2977 -2.587,-1.7446 -5.2359,-3.9136 -7.9423,-6.5028 l 11.9732,47.6135 211.9243,0 c 10.8301,0 20.0372,-3.7323 27.5594,-11.135 7.4006,-7.5243 11.0689,-16.6738 11.0689,-27.5081 l 0,-95.4062 c 0,-10.5336 -3.6683,-19.681 -11.0689,-27.3269 -7.5222,-7.7631 -16.7293,-11.617 -27.5594,-11.617 l -128.1651,0 c -5.0546,0 -9.2667,-1.6849 -12.6962,-5.1143 -3.31,-3.3122 -4.9352,-7.4646 -4.9352,-12.5214 l 0,-18.1774 c 0,-5.0546 1.6252,-9.2091 4.9352,-12.5213 3.4295,-3.4316 7.6416,-5.1164 12.6962,-5.1164 l 143.329,0 c 5.0524,0 10.348,1.8064 15.8825,5.4768 2.7086,1.6273 5.3575,3.7345 7.9445,6.3236 l -11.7941,-47.6135 -211.6215,0 c -10.6509,0 -19.8559,3.9115 -27.4996,11.6768 -7.7611,7.6437 -11.6128,16.7335 -11.6128,27.3268 z"/>
        <path id="path12" style="fill:#006ab1;fill-rule:evenodd" d="M 646.7106,246.9392 531.423,473.3236 c -5.0525,6.9207 -10.1092,12.9393 -15.1638,17.9961 l 51.9877,0 0.3626,-12.3401 30.3276,-59.2284 119.5595,0 24.309,58.5076 c 0.482,1.3244 0.723,2.4078 0.723,3.3697 0,1.1431 -0.241,2.2266 -0.723,3.1906 -1.3244,2.2266 -3.2482,4.3934 -5.8373,6.5006 l 101.0281,0 c -3.3101,-3.4316 -5.8352,-6.2596 -7.5819,-8.6675 -2.3461,-3.1309 -4.2719,-6.3812 -5.8352,-9.6912 l -101.3288,-243.8387 -84.1197,0 7.5798,17.8169 z m 17.9939,43.5208 38.929,93.6573 -85.8046,0 46.8756,-93.6573 z"/>
        <path id="path14" style="fill:#006ab1;fill-rule:evenodd" d="M 888.5019,491.7718 803.3606,241.5519 c -0.723,-2.4676 -1.5036,-4.3934 -2.4654,-5.7776 -1.3245,-1.4439 -3.7921,-3.4913 -7.582,-6.1999 l 92.0002,0 0,11.9775 62.4596,182.6845 68.1731,-183.0449 0,-11.6171 51.3266,0 c -2.587,1.6252 -4.515,3.1309 -5.8373,4.3935 -2.105,2.1071 -3.6107,4.515 -4.5726,7.2236 l -96.7562,250.5803 -71.6047,0 z"/>
        <path id="path16" style="fill:#006ab1;fill-rule:evenodd" d="m 1089.3509,229.8922 c 3.3079,0 6.1977,2.1669 8.6632,6.5603 2.105,4.5748 3.1287,10.3524 3.1287,17.2752 l 0,214.5861 c 0,6.5006 -1.0237,12.0372 -3.1287,16.6119 -2.4655,4.8157 -5.3553,7.2236 -8.6632,7.2236 l 226.363,0 11.9754,-47.6135 c -2.9496,2.5892 -5.2359,4.4574 -6.861,5.6006 -6.136,4.1524 -11.8517,6.1999 -17.0897,6.1999 l -124.8551,0 0,-77.5892 107.2258,0 c 6.6798,0 12.3358,1.0834 16.9105,3.1905 4.5705,2.4676 6.8568,5.4172 6.8568,8.7891 l 0,-59.591 c 0,3.2503 -2.1647,6.0186 -6.4985,8.2452 -4.5726,2.3481 -10.348,3.551 -17.2688,3.551 l -107.2258,0 0,-77.2267 124.8551,0 c 3.8517,0 8.3049,1.205 13.3595,3.5511 5.0546,2.651 8.6035,5.4193 10.5912,8.2494 l -11.9754,-47.6135 -226.363,0 z"/>
        <path id="path18" style="fill:#006ab1;fill-rule:evenodd" d="m 1581.392,229.8517 -175.2796,0 c -10.7106,0 -19.8558,3.8517 -27.4975,11.617 -7.761,7.6438 -11.6149,16.7933 -11.6149,27.3269 l 0,184.6103 c 0,10.8343 3.7323,19.9838 11.2545,27.5081 7.4006,7.4028 16.7271,11.1351 27.8579,11.1351 l 175.64,0 11.9754,-47.6135 c -2.7065,2.5891 -4.9949,4.4574 -6.8611,5.6603 -6.1359,4.0927 -11.7919,6.1401 -17.0875,6.1401 l -107.4668,0 c -5.0525,0 -9.2668,-1.6251 -12.6963,-4.9351 -3.31,-3.3719 -4.933,-7.7675 -4.933,-13.0652 l 0,-154.9929 c 0,-5.0546 1.623,-9.2092 4.933,-12.5214 3.4295,-3.3697 7.6438,-5.1164 12.6963,-5.1164 l 107.1063,0 c 3.8497,0 8.3647,1.205 13.3574,3.551 5.0546,2.7107 8.6056,5.4812 10.5891,8.3092 l -11.9732,-47.6135 z"/>
        <path id="path20" style="fill:#006ab1;fill-rule:evenodd" d="m 1899.2369,253.2607 0,214.6457 c 0,6.4409 -1.0237,11.9775 -3.1287,16.5522 -2.4655,4.8158 -5.3553,7.2236 -8.6632,7.2236 l 101.3885,0 c -3.31,0 -6.0783,-2.2863 -8.3049,-6.861 -2.346,-4.3956 -3.4913,-9.9919 -3.4913,-16.9148 l 0,-214.6457 c 0,-6.4409 1.1453,-12.0991 3.4913,-16.9127 2.2266,-4.5747 4.9949,-6.8632 8.3049,-6.8632 l -101.3885,0 c 3.3079,0 6.1977,2.1669 8.6632,6.5006 2.105,4.6345 3.1287,10.3524 3.1287,17.2753 z"/>
        <path id="path22" style="fill:#006ab1;fill-rule:evenodd" d="m 1781.5692,265.5069 65.7269,0 c 5.0567,0 10.3523,1.8661 15.8911,5.4769 2.587,1.6251 5.2358,3.792 7.9444,6.3811 l -11.9775,-47.6113 -232.6375,0 -11.7962,47.6113 c 3.31,-3.31 7.102,-6.1998 11.4357,-8.6674 4.3935,-2.1072 8.4862,-3.1906 12.3998,-3.1906 l 65.7269,0 0,202.6021 c 0,6.7416 -1.1431,12.3998 -3.4294,16.9745 -2.2885,4.5748 -5.1165,6.8611 -8.5481,6.8611 l 101.2414,0 c -3.1906,0 -6.0208,-2.4079 -8.4883,-7.2236 -2.3461,-4.5748 -3.4892,-10.1114 -3.4892,-16.612 l 0,-202.6021 z"/>
    </g>
</svg>